<?xml version="1.0" standalone="no"?>
<!DOCTYPE svg PUBLIC "-//W3C//DTD SVG 20010904//EN"
 "http://www.w3.org/TR/2001/REC-SVG-20010904/DTD/svg10.dtd">
<svg version="1.0" xmlns="http://www.w3.org/2000/svg"
 width="512.000000pt" height="512.000000pt" viewBox="0 0 512.000000 512.000000"
 preserveAspectRatio="xMidYMid meet">
<metadata>
Created by potrace 1.11, written by Peter Selinger 2001-2013
</metadata>
<g transform="translate(0.000000,512.000000) scale(0.100000,-0.100000)"
fill="#000000" stroke="none">
<path d="M4796 5083 c-2 -2 -30 -6 -62 -9 -33 -2 -74 -6 -93 -9 -18 -3 -59 -8
-90 -11 -94 -9 -126 -13 -126 -14 0 -1 -13 -3 -30 -4 -40 -4 -154 -17 -185
-21 -14 -2 -52 -7 -85 -10 -83 -9 -116 -13 -225 -26 -52 -6 -111 -13 -130 -14
-45 -5 -126 -14 -166 -20 -32 -4 -122 -14 -184 -20 -37 -4 -103 -12 -160 -20
-31 -4 -61 -8 -180 -20 -118 -12 -157 -17 -170 -20 -8 -2 -49 -7 -90 -10 -41
-4 -77 -8 -80 -10 -3 -1 -39 -6 -80 -10 -41 -3 -86 -8 -100 -10 -14 -2 -52 -6
-85 -10 -33 -3 -71 -9 -85 -11 -14 -3 -50 -7 -80 -10 -30 -2 -68 -6 -85 -8
-16 -2 -59 -7 -95 -11 -36 -4 -78 -9 -95 -11 -16 -2 -55 -6 -85 -9 -30 -3 -71
-8 -91 -11 -50 -6 -127 -15 -165 -18 -16 -1 -36 -6 -42 -10 -7 -4 -12 -4 -12
-1 0 3 -27 -8 -61 -26 -72 -39 -132 -115 -147 -187 -6 -29 -9 -554 -9 -1390 1
-738 0 -1342 -3 -1342 -3 0 -40 11 -82 25 -42 13 -105 30 -140 36 -108 20
-356 16 -448 -7 -158 -40 -274 -91 -385 -169 -97 -69 -208 -185 -245 -255 -7
-14 -16 -27 -19 -30 -14 -11 -63 -133 -81 -202 -25 -98 -21 -271 10 -378 49
-171 175 -342 336 -456 95 -67 294 -152 394 -168 19 -3 46 -8 60 -12 43 -10
266 -12 321 -2 30 5 70 11 89 14 49 7 200 59 262 90 241 121 411 319 474 554
l23 85 1 1359 c0 748 3 1362 6 1365 3 3 15 6 27 7 12 1 49 5 82 8 33 3 76 7
95 10 32 4 86 11 165 21 17 2 57 7 90 10 116 12 160 17 185 21 14 2 50 7 80
10 30 3 66 7 80 9 14 2 52 7 85 10 33 3 76 8 96 11 20 3 59 7 85 10 27 2 65 6
84 9 19 2 62 7 94 10 33 4 69 9 80 11 11 2 50 6 86 10 36 3 79 8 95 10 17 2
55 6 85 9 30 3 66 8 80 10 14 3 52 8 85 11 33 4 74 8 90 10 17 2 55 6 85 9 30
2 71 7 90 10 47 7 152 18 265 30 33 3 69 8 80 10 11 2 47 7 80 10 33 4 70 8
83 10 l22 4 0 -935 c0 -577 -4 -934 -9 -934 -6 0 -12 4 -15 9 -3 4 -20 12 -38
16 -18 4 -35 9 -38 10 -132 47 -342 59 -525 30 -75 -12 -84 -13 -93 -19 -5 -3
-21 -7 -35 -10 -43 -8 -181 -70 -260 -118 -86 -52 -219 -179 -277 -266 -44
-66 -95 -177 -104 -227 -3 -17 -10 -43 -14 -60 -14 -46 -14 -203 -1 -263 6
-30 12 -59 13 -65 2 -7 6 -19 9 -27 4 -8 14 -35 22 -60 25 -71 87 -169 155
-243 221 -240 563 -362 910 -323 242 27 455 124 615 281 113 111 156 175 205
304 51 134 49 54 49 2041 0 1784 0 1857 -18 1896 -25 55 -82 108 -131 123 -37
11 -164 14 -174 4z"/>
</g>
</svg>
